<?xml version="1.0" encoding="utf-8"?>
<!-- Generator: Adobe Illustrator 23.0.1, SVG Export Plug-In . SVG Version: 6.00 Build 0)  -->
<svg version="1.1"
	 id="Capa_1" image-rendering="optimizeQuality" text-rendering="geometricPrecision" shape-rendering="geometricPrecision" xmlns:xodm="http://www.corel.com/coreldraw/odm/2003"
	 xmlns="http://www.w3.org/2000/svg" xmlns:xlink="http://www.w3.org/1999/xlink" x="0px" y="0px" viewBox="0 0 180 100"
	 style="enable-background:new 0 0 180 100;" xml:space="preserve">
<style type="text/css">
	.st0{stroke:#000000;stroke-miterlimit:10;}
	.st1{fill-rule:evenodd;clip-rule:evenodd;fill:#FFFFFF;}
	.st2{fill:#007BFF;}
	.st3{fill:#FFFFFF;}
	.st4{fill:none;stroke:#FFFFFF;stroke-width:0.512;stroke-miterlimit:22.9256;}
</style>
<rect x="-5.1" y="-41" class="st0" width="192" height="192"/>
<g id="Capa_x0020_1">
	<path class="st1" d="M136.4,73.4l-0.4,3.1c-1,0-1.9,0.1-2.9,0.1l0,0h0l-0.1,0c-10.3,0.4-20.5,1.2-30.4,2.4l-0.4,0.1
		c-27.1,3.3-52.5,9.4-74.9,17.8l-0.1,0l0.2-1.3l0,0l2.4-20.5c0,0,2.8-0.1,2.8-0.1l-1.7,15c33.9-9.8,69-14.7,103.6-15.8l0.3,0
		l0.1-0.9C134.9,73.4,136.4,73.4,136.4,73.4L136.4,73.4z"/>
	<path class="st1" d="M33.7,36.5l0.4-3.1c1,0,1.9-0.1,2.9-0.1l0,0h0l0.1,0c10.3-0.4,20.5-1.2,30.4-2.4l0.4-0.1
		c27.1-3.3,52.5-9.4,74.9-17.8l0.1,0l-0.2,1.3l0,0l-2.7,19.2c0,0-2.8,0.1-2.8,0.1l2-13.7c-33.9,9.8-69,14.7-103.6,15.8l-0.3,0
		l-0.2,0.9L33.7,36.5L33.7,36.5L33.7,36.5z"/>
	<path class="st2" d="M102.1,38.1c0.8-0.1,1.6-0.1,2.5-0.1c0.8,0,1.6,0,2.3,0.1l-3,17.5c-0.3,1.8-0.4,3.3-0.4,4.6
		c0,1.3,0.3,2.3,0.7,3.1c0.4,0.8,1.1,1.4,1.9,1.7c0.9,0.4,2,0.6,3.3,0.6s2.5-0.2,3.5-0.6c1-0.4,1.8-1,2.5-1.7
		c0.7-0.8,1.3-1.8,1.7-3.1c0.5-1.3,0.8-2.8,1.1-4.6l3-17.5c0.8-0.1,1.6-0.1,2.4-0.1c0.9,0,1.7,0,2.4,0.1L123,56.4
		c-0.3,2.1-0.9,3.9-1.6,5.5c-0.7,1.6-1.6,3-2.8,4.1c-1.1,1.1-2.5,2-4.2,2.6c-1.6,0.6-3.5,0.9-5.7,0.9s-4-0.3-5.4-0.9
		c-1.4-0.6-2.5-1.4-3.3-2.6c-0.8-1.1-1.2-2.5-1.4-4.1c-0.1-1.6,0-3.5,0.3-5.5L102.1,38.1C102.1,38.1,102.1,38.1,102.1,38.1z
		 M128.6,46.9c0.4-0.1,0.7-0.1,1-0.1c0.3,0,0.7,0,1,0c0.3,0,0.7,0,1,0c0.3,0,0.6,0.1,0.9,0.1c0,0.4,0,1,0,1.7c0,0.7-0.1,1.3-0.2,1.8
		c0.4-0.5,0.9-1,1.4-1.5c0.6-0.5,1.2-0.9,1.9-1.3s1.5-0.7,2.3-0.9c0.9-0.2,1.8-0.4,2.7-0.4c2.8,0,4.7,0.7,5.7,2.2
		c1.1,1.4,1.4,3.6,0.9,6.4l-2.4,14c-0.4,0.1-0.8,0.1-1.2,0.1c-0.4,0-0.8,0-1.2,0c-0.3,0-0.7,0-1.1,0c-0.4,0-0.8-0.1-1.1-0.1
		l2.2-12.8c0.3-2,0.3-3.5-0.3-4.5c-0.5-1-1.5-1.4-3-1.4c-0.9,0-1.7,0.1-2.6,0.4c-0.8,0.3-1.6,0.7-2.3,1.3c-0.7,0.6-1.3,1.4-1.8,2.3
		c-0.5,1-0.9,2.1-1.1,3.5L129.5,69c-0.4,0.1-0.7,0.1-1.2,0.1c-0.4,0-0.8,0-1.2,0c-0.3,0-0.7,0-1.2,0c-0.4,0-0.8-0.1-1.1-0.1
		L128.6,46.9L128.6,46.9L128.6,46.9z M158,69.5c-1.9,0-3.5-0.3-4.8-0.9c-1.3-0.6-2.3-1.4-3.1-2.4c-0.8-1-1.3-2.3-1.5-3.7
		c-0.2-1.4-0.2-2.9,0.1-4.6c0.3-1.6,0.8-3.2,1.5-4.6c0.7-1.4,1.6-2.6,2.7-3.7c1.1-1,2.4-1.8,3.9-2.5s3.2-0.9,5.1-0.9
		c1.9,0,3.5,0.3,4.8,0.9c1.3,0.6,2.3,1.4,3.1,2.5c0.8,1,1.3,2.3,1.5,3.7c0.2,1.4,0.2,2.9-0.1,4.6c-0.3,1.6-0.8,3.2-1.4,4.6
		c-0.7,1.4-1.6,2.6-2.7,3.7c-1.1,1-2.4,1.8-3.9,2.4C161.5,69.2,159.9,69.5,158,69.5L158,69.5L158,69.5z M158.6,66.1
		c2.2,0,3.9-0.7,5.1-2.1c1.3-1.4,2.1-3.4,2.6-6c0.4-2.6,0.3-4.5-0.5-6c-0.8-1.4-2.3-2.1-4.4-2.1c-2.2,0-3.9,0.7-5.1,2.1
		c-1.3,1.4-2.1,3.4-2.5,6c-0.4,2.6-0.3,4.5,0.5,6C154.9,65.4,156.4,66.1,158.6,66.1z"/>
	<path class="st3" d="M8.8,46.8c0.3-0.1,0.6-0.1,1-0.1c0.3,0,0.7,0,1,0c0.3,0,0.6,0,1,0c0.3,0,0.7,0.1,1,0.1c0,0.1,0,0.2,0,0.5
		c0,0.3,0,0.6,0,1c0,0.3,0,0.7,0,1c0,0.3,0,0.5,0,0.6c0.4-0.5,0.8-0.9,1.3-1.3c0.5-0.4,1.1-0.8,1.8-1.2c0.7-0.3,1.4-0.6,2.2-0.8
		s1.7-0.3,2.6-0.3c1.4,0,2.7,0.2,3.8,0.6c1.1,0.4,2,1.1,2.7,2c0.7,0.9,1.2,2,1.4,3.4c0.2,1.4,0.2,3-0.1,4.9
		c-0.6,3.8-2.3,6.7-4.8,8.8s-5.9,3.2-10,3.2c-0.7,0-1.4,0-2.1-0.1c-0.7-0.1-1.3-0.2-1.8-0.3L8,78.9C7.6,78.9,7.2,79,6.8,79
		c-0.4,0-0.8,0-1.2,0c-0.3,0-0.7,0-1.1,0c-0.4,0-0.8-0.1-1.1-0.1L8.8,46.8C8.8,46.8,8.8,46.8,8.8,46.8z M10.4,65.1
		c0.6,0.2,1.1,0.3,1.7,0.4c0.6,0.1,1.4,0.1,2.4,0.1c1.1,0,2.2-0.2,3.2-0.5c1-0.3,1.9-0.8,2.7-1.5c0.8-0.7,1.5-1.6,2-2.6
		c0.6-1,1-2.3,1.2-3.7c0.4-2.3,0.2-4.1-0.5-5.4c-0.7-1.3-2.1-2-4.2-2c-0.8,0-1.5,0.1-2.3,0.4c-0.8,0.3-1.5,0.6-2.1,1.2
		c-0.6,0.5-1.2,1.2-1.7,2c-0.5,0.8-0.8,1.7-1,2.8L10.4,65.1C10.4,65.1,10.4,65.1,10.4,65.1z M43.5,58.4c-0.5-0.1-1-0.1-1.7-0.2
		c-0.7-0.1-1.3-0.1-1.8-0.1c-1.9,0-3.5,0.3-4.6,1c-1.1,0.7-1.8,1.7-2,3c-0.1,0.9-0.1,1.5,0.2,2c0.3,0.5,0.6,0.9,1.1,1.1
		c0.5,0.3,1,0.4,1.6,0.5c0.6,0.1,1.2,0.1,1.8,0.1c0.7,0,1.5,0,2.2-0.1c0.8-0.1,1.5-0.2,2.1-0.3C42.4,65.4,43.5,58.4,43.5,58.4z
		 M44.2,54.3c0.3-1.7,0-2.9-0.8-3.5c-0.8-0.7-2.1-1-3.9-1c-1.1,0-2.1,0.1-3.1,0.2c-1,0.2-1.9,0.4-2.9,0.6c-0.4-0.9-0.5-2.1-0.3-3.4
		c1.1-0.3,2.3-0.6,3.6-0.7c1.3-0.2,2.5-0.3,3.7-0.3c3.1,0,5.4,0.7,6.8,2c1.4,1.3,1.9,3.4,1.4,6.2l-2.3,13.8
		c-1.1,0.2-2.5,0.5-4.1,0.7c-1.6,0.2-3.2,0.4-4.8,0.4c-1.5,0-2.9-0.1-4.1-0.4s-2.2-0.7-2.9-1.2c-0.8-0.6-1.3-1.3-1.6-2.2
		c-0.3-0.9-0.4-2-0.2-3.2c0.2-1.2,0.7-2.3,1.4-3.2c0.7-0.9,1.6-1.7,2.6-2.3c1-0.6,2.2-1.1,3.5-1.4s2.6-0.5,3.9-0.5
		c1,0,1.8,0,2.4,0.1c0.6,0,1.2,0.1,1.6,0.2L44.2,54.3C44.2,54.3,44.2,54.3,44.2,54.3z M63,65.9c2.8,0.1,4.7,0.6,5.7,1.6
		c1.1,1,1.5,2.4,1.2,4.2c-0.2,1.2-0.7,2.2-1.5,3.1c-0.8,0.9-1.8,1.7-3.1,2.4c-1.3,0.7-2.7,1.2-4.3,1.5s-3.4,0.5-5.2,0.5
		c-3.2,0-5.6-0.5-7.1-1.4c-1.5-0.9-2.1-2.4-1.8-4.3c0.2-1.2,0.7-2.2,1.6-3.2c0.8-0.9,1.9-1.7,3-2.2c-0.6-0.4-1-0.8-1.3-1.4
		c-0.3-0.6-0.4-1.3-0.3-2.1c0.2-1.1,0.6-2,1.2-2.7s1.5-1.5,2.4-2.1c-0.9-0.7-1.6-1.5-2-2.5c-0.4-1-0.6-2.2-0.3-3.5
		c0.2-1.1,0.6-2.1,1.2-3c0.6-0.9,1.4-1.8,2.3-2.5c0.9-0.7,2.1-1.3,3.3-1.7c1.3-0.4,2.7-0.6,4.3-0.6c1.4,0,2.6,0.2,3.7,0.6
		c1.1,0.4,2,0.8,2.7,1.4c0.7-0.5,1.6-0.8,2.7-1.1c1.1-0.3,2.3-0.5,3.6-0.5c0,0.5,0,1.1-0.1,1.8c-0.1,0.3-0.1,0.6-0.2,1
		c-0.1,0.3-0.2,0.7-0.3,1H70c0.3,0.5,0.4,1,0.5,1.6c0.1,0.6,0.1,1.2-0.1,2c-0.2,1.2-0.6,2.2-1.2,3.2s-1.4,1.8-2.4,2.4
		c-1,0.7-2.1,1.2-3.3,1.5c-1.2,0.4-2.6,0.5-4,0.5c-1.3,0-2.4-0.1-3.4-0.4c-0.5,0.2-1,0.6-1.5,1.1c-0.5,0.5-0.8,1-0.9,1.5
		c-0.1,0.5,0,1,0.4,1.3c0.3,0.4,1.2,0.6,2.6,0.6L63,65.9L63,65.9L63,65.9z M56.1,69.3c-1.4,0-2.5,0.3-3.3,1
		c-0.8,0.7-1.3,1.6-1.5,2.6c-0.1,0.6-0.1,1.1,0.2,1.5c0.2,0.4,0.6,0.7,1,1c0.5,0.2,1.1,0.4,1.7,0.5c0.7,0.1,1.4,0.2,2.3,0.2
		c2.5,0,4.5-0.4,6-1.1c1.5-0.8,2.4-1.7,2.6-2.8c0.1-0.9,0-1.5-0.6-2s-1.6-0.7-3.1-0.7L56.1,69.3L56.1,69.3z M60.1,58.6
		c1.7,0,3-0.4,4-1.3c1-0.9,1.5-2,1.8-3.3c0.2-1.4,0-2.5-0.6-3.4c-0.7-0.9-1.8-1.3-3.5-1.3c-1.7,0-3,0.4-3.9,1.3
		c-0.9,0.9-1.5,2-1.8,3.4c-0.2,1.3,0,2.4,0.6,3.3C57.3,58.2,58.4,58.6,60.1,58.6z M81.6,69.3c-1.9,0-3.5-0.3-4.8-0.9
		c-1.3-0.6-2.3-1.4-3.1-2.4c-0.8-1-1.2-2.2-1.5-3.6c-0.2-1.4-0.2-2.9,0.1-4.5c0.3-1.6,0.8-3.1,1.4-4.5c0.7-1.4,1.6-2.6,2.7-3.6
		c1.1-1,2.4-1.8,3.9-2.4c1.5-0.6,3.2-0.9,5.1-0.9c1.9,0,3.4,0.3,4.8,0.9c1.3,0.6,2.3,1.4,3.1,2.4c0.8,1,1.2,2.2,1.5,3.6
		c0.2,1.4,0.2,2.9-0.1,4.5c-0.3,1.6-0.8,3.1-1.4,4.5c-0.7,1.4-1.6,2.6-2.7,3.6c-1.1,1-2.4,1.8-3.9,2.4C85.1,69,83.4,69.3,81.6,69.3z
		 M82.1,65.9c2.1,0,3.9-0.7,5.1-2.1c1.3-1.4,2.1-3.4,2.5-6c0.4-2.5,0.3-4.5-0.5-5.9c-0.8-1.4-2.3-2.1-4.4-2.1s-3.8,0.7-5.1,2.1
		c-1.3,1.4-2.1,3.4-2.5,5.9c-0.4,2.5-0.3,4.5,0.5,6C78.5,65.2,80,65.9,82.1,65.9z"/>
	<circle class="st4" cx="173.4" cy="40.6" r="4.9"/>
	<path class="st3" d="M171.9,42.9h0.8v-2.1h0.9l1.2,2.1h0.9l-1.3-2.3v0c0.6-0.2,1-0.6,1-1.3c0-1-0.6-1.5-1.8-1.5h-1.6V42.9z
		 M172.6,40.2v-1.8h0.8c0.7,0,1,0.3,1,0.9c0,0.6-0.3,0.9-1,0.9H172.6z"/>
</g>
</svg>
